HIERARCHY
ROOT Hips
{
    OFFSET   0.000000   0.000000   0.000000
    CHANNELS 6 Xposition Yposition Zposition Zrotation Xrotation Yrotation
    JOINT Chest
    {
        OFFSET   0.000000   8.007230   0.000000
        CHANNELS 3 Zrotation Xrotation Yrotation
        JOINT Chest2
        {
            OFFSET   0.000000  22.077100   0.000000
            CHANNELS 3 Zrotation Xrotation Yrotation
            JOINT Neck
            {
                OFFSET   0.000000  23.255100   0.000000
                CHANNELS 3 Zrotation Xrotation Yrotation
                JOINT Head
                {
                    OFFSET   0.000000  14.370100   1.956600
                    CHANNELS 3 Zrotation Xrotation Yrotation
                    End Site
                    {
                        OFFSET   0.000000  19.566000   0.000000
                    }
                }
            }
            JOINT LeftCollar
            {
                OFFSET   3.911900  19.017000  -0.467063
                CHANNELS 3 Zrotation Xrotation Yrotation
                JOINT LeftShoulder
                {
                    OFFSET  10.383700   0.000000   0.000000
                    CHANNELS 3 Zrotation Xrotation Yrotation
                    JOINT LeftElbow
                    {
                        OFFSET  26.662100   0.001193   0.000980
                        CHANNELS 3 Zrotation Xrotation Yrotation
                        JOINT LeftWrist
                        {
                            OFFSET  28.869000  -0.000059  -0.000082
                            CHANNELS 3 Zrotation Xrotation Yrotation
                            JOINT LeftFinger0
                            {
                                OFFSET   2.044650  -2.323450   3.252850
                                CHANNELS 3 Zrotation Xrotation Yrotation
                                JOINT LeftFinger01
                                {
                                    OFFSET   3.088130   0.000000   0.000000
                                    CHANNELS 3 Zrotation Xrotation Yrotation
                                    JOINT LeftFinger02
                                    {
                                        OFFSET   2.639460   0.000000   0.000000
                                        CHANNELS 3 Zrotation Xrotation Yrotation
                                        End Site
                                        {
                                            OFFSET   2.582190   0.000000   0.000000
                                        }
                                    }
                                }
                            }
                            JOINT LeftFinger1
                            {
                                OFFSET   8.364480   0.000000   3.252850
                                CHANNELS 3 Zrotation Xrotation Yrotation
                                JOINT LeftFinger11
                                {
                                    OFFSET   4.646930   0.000000   0.000000
                                    CHANNELS 3 Zrotation Xrotation Yrotation
                                    JOINT LeftFinger12
                                    {
                                        OFFSET   2.323470   0.000000   0.000000
                                        CHANNELS 3 Zrotation Xrotation Yrotation
                                        End Site
                                        {
                                            OFFSET   2.273050   0.000000   0.000000
                                        }
                                    }
                                }
                            }
                            JOINT LeftFinger2
                            {
                                OFFSET   8.364490   0.000016   1.078090
                                CHANNELS 3 Zrotation Xrotation Yrotation
                                JOINT LeftFinger21
                                {
                                    OFFSET   5.111610   0.000000   0.000000
                                    CHANNELS 3 Zrotation Xrotation Yrotation
                                    JOINT LeftFinger22
                                    {
                                        OFFSET   2.788150   0.000016   0.000000
                                        CHANNELS 3 Zrotation Xrotation Yrotation
                                        End Site
                                        {
                                            OFFSET   2.727660   0.000000   0.000000
                                        }
                                    }
                                }
                            }
                            JOINT LeftFinger3
                            {
                                OFFSET   7.899780   0.000015  -1.078090
                                CHANNELS 3 Zrotation Xrotation Yrotation
                                JOINT LeftFinger31
                                {
                                    OFFSET   4.646930   0.000000   0.000000
                                    CHANNELS 3 Zrotation Xrotation Yrotation
                                    JOINT LeftFinger32
                                    {
                                        OFFSET   2.323470   0.000000   0.000000
                                        CHANNELS 3 Zrotation Xrotation Yrotation
                                        End Site
                                        {
                                            OFFSET   2.273050   0.000000   0.000000
                                        }
                                    }
                                }
                            }
                            JOINT LeftFinger4
                            {
                                OFFSET   7.435090   0.000000  -3.252850
                                CHANNELS 3 Zrotation Xrotation Yrotation
                                JOINT LeftFinger41
                                {
                                    OFFSET   3.717550   0.000000   0.000000
                                    CHANNELS 3 Zrotation Xrotation Yrotation
                                    JOINT LeftFinger42
                                    {
                                        OFFSET   1.858770   0.000000   0.000000
                                        CHANNELS 3 Zrotation Xrotation Yrotation
                                        End Site
                                        {
                                            OFFSET   1.818440   0.000000   0.000000
                                        }
                                    }
                                }
                            }
                        }
                    }
                }
            }
            JOINT RightCollar
            {
                OFFSET  -3.911910  19.017000  -0.467062
                CHANNELS 3 Zrotation Xrotation Yrotation
                JOINT RightShoulder
                {
                    OFFSET -10.383700   0.000014   0.000000
                    CHANNELS 3 Zrotation Xrotation Yrotation
                    JOINT RightElbow
                    {
                        OFFSET -26.662100   0.001225   0.001091
                        CHANNELS 3 Zrotation Xrotation Yrotation
                        JOINT RightWrist
                        {
                            OFFSET -28.869000  -0.000020  -0.000085
                            CHANNELS 3 Zrotation Xrotation Yrotation
                            JOINT RightFinger0
                            {
                                OFFSET  -2.044650  -2.323490   3.252850
                                CHANNELS 3 Zrotation Xrotation Yrotation
                                JOINT RightFinger01
                                {
                                    OFFSET  -3.088130   0.000000   0.000000
                                    CHANNELS 3 Zrotation Xrotation Yrotation
                                    JOINT RightFinger02
                                    {
                                        OFFSET  -2.639460   0.000000   0.000000
                                        CHANNELS 3 Zrotation Xrotation Yrotation
                                        End Site
                                        {
                                            OFFSET  -2.582190   0.000000   0.000000
                                        }
                                    }
                                }
                            }
                            JOINT RightFinger1
                            {
                                OFFSET  -8.364480   0.000000   3.252850
                                CHANNELS 3 Zrotation Xrotation Yrotation
                                JOINT RightFinger11
                                {
                                    OFFSET  -4.646930   0.000000   0.000000
                                    CHANNELS 3 Zrotation Xrotation Yrotation
                                    JOINT RightFinger12
                                    {
                                        OFFSET  -2.323470   0.000000   0.000000
                                        CHANNELS 3 Zrotation Xrotation Yrotation
                                        End Site
                                        {
                                            OFFSET  -2.273050   0.000000   0.000000
                                        }
                                    }
                                }
                            }
                            JOINT RightFinger2
                            {
                                OFFSET  -8.364480   0.000000   1.078090
                                CHANNELS 3 Zrotation Xrotation Yrotation
                                JOINT RightFinger21
                                {
                                    OFFSET  -5.111620   0.000000   0.000000
                                    CHANNELS 3 Zrotation Xrotation Yrotation
                                    JOINT RightFinger22
                                    {
                                        OFFSET  -2.788160   0.000000   0.000000
                                        CHANNELS 3 Zrotation Xrotation Yrotation
                                        End Site
                                        {
                                            OFFSET  -2.727660   0.000000   0.000000
                                        }
                                    }
                                }
                            }
                            JOINT RightFinger3
                            {
                                OFFSET  -7.899780   0.000000  -1.078090
                                CHANNELS 3 Zrotation Xrotation Yrotation
                                JOINT RightFinger31
                                {
                                    OFFSET  -4.646930   0.000000   0.000000
                                    CHANNELS 3 Zrotation Xrotation Yrotation
                                    JOINT RightFinger32
                                    {
                                        OFFSET  -2.323470   0.000000   0.000000
                                        CHANNELS 3 Zrotation Xrotation Yrotation
                                        End Site
                                        {
                                            OFFSET  -2.273050   0.000000   0.000000
                                        }
                                    }
                                }
                            }
                            JOINT RightFinger4
                            {
                                OFFSET  -7.435090   0.000000  -3.252850
                                CHANNELS 3 Zrotation Xrotation Yrotation
                                JOINT RightFinger41
                                {
                                    OFFSET  -3.717550   0.000000   0.000000
                                    CHANNELS 3 Zrotation Xrotation Yrotation
                                    JOINT RightFinger42
                                    {
                                        OFFSET  -1.858760   0.000000   0.000000
                                        CHANNELS 3 Zrotation Xrotation Yrotation
                                        End Site
                                        {
                                            OFFSET  -1.818440   0.000000   0.000000
                                        }
                                    }
                                }
                            }
                        }
                    }
                }
            }
        }
    }
    JOINT LeftHip
    {
        OFFSET   9.783030   0.000000   0.000000
        CHANNELS 3 Zrotation Xrotation Yrotation
        JOINT LeftKnee
        {
            OFFSET   0.000063 -41.789100   0.000608
            CHANNELS 3 Zrotation Xrotation Yrotation
            JOINT LeftAnkle
            {
                OFFSET   0.000048 -41.133200  -0.000184
                CHANNELS 3 Zrotation Xrotation Yrotation
                JOINT LeftToe
                {
                    OFFSET   0.000000  -6.358960  14.674500
                    CHANNELS 3 Zrotation Xrotation Yrotation
                    End Site
                    {
                        OFFSET   0.000000   0.000000   3.913200
                    }
                }
            }
        }
    }
    JOINT RightHip
    {
        OFFSET  -9.783030   0.000000   0.000000
        CHANNELS 3 Zrotation Xrotation Yrotation
        JOINT RightKnee
        {
            OFFSET   0.000071 -41.789100   0.001239
            CHANNELS 3 Zrotation Xrotation Yrotation
            JOINT RightAnkle
            {
                OFFSET   0.000037 -41.133200  -0.000166
                CHANNELS 3 Zrotation Xrotation Yrotation
                JOINT RightToe
                {
                    OFFSET   0.000000  -6.358960  14.674500
                    CHANNELS 3 Zrotation Xrotation Yrotation
                    End Site
                    {
                        OFFSET   0.000000   0.000000   3.913200
                    }
                }
            }
        }
    }
}
MOTION
Frames: 4
Frame Time:   0.016667
  0.128498  90.046700  -0.189276  -0.699376  -1.994010  -4.161980   0.040992   1.469910  -0.417286   0.092741   2.939490  -0.836035   1.565090   0.918527  -0.030912   2.579400   1.858050   7.932550  -1.814220   0.017525   7.419800 -77.501200  12.873100   0.338483  -3.444390  -3.216670 -13.347700  15.522100   7.309630   8.919270  35.764500  21.577300 -55.072200 -29.088200  -0.000262   0.005379  -9.538960   0.007431   0.012769 -36.338800   8.623380 -11.498000 -30.443200   0.001239   0.010105 -21.310300   0.001618   0.004678 -30.915800  -0.096668   0.161497 -46.351300  -0.001040   0.006640 -30.884800  -0.000474   0.002702 -28.635500  -0.078929   0.165196 -37.880200  -0.002729   0.010118 -25.221100   0.000690   0.009791 -34.949500  -0.107811   0.154266 -52.424600   0.002311  -0.007627 -34.914700   0.008956  -0.008052   6.785480   2.848730   4.614690  73.432400   6.103790   0.050998   2.434670  -3.548420  10.438800 -12.209200 -10.374600   0.792559 -40.307700  34.741100  71.028200  28.756900   0.003092  -0.005239   9.378440   0.000000  -0.002687  28.522200   2.977550   5.459900  23.448600   0.004948   0.005768  16.430100  -0.003105   0.003857  26.030800  -1.883410  -3.849800  26.094100   0.001779   0.003493  17.378600   0.002842  -0.013266  27.016900  -4.615110  -8.969200  28.605000   0.000576   0.005846  19.050900  -0.003896   0.003709  35.286300  -5.861110  -8.213070  53.550800   0.000803   0.001351  35.664800   0.000949   0.001140  -0.842415   4.121520   1.543260   0.002557   0.999225   7.235120  -3.454620  -5.383980   4.150080  -0.000000   0.000000  -0.000000   2.141440   4.182720  -8.303090  -0.052890   1.991430  -1.229260 -11.150800  -0.595333   2.300190   0.000000   0.000000   0.000000
  0.128336  90.046600  -0.189252  -0.700781  -2.012360  -4.171180   0.041285   1.495810  -0.416041   0.093603   2.991290  -0.833533   1.564990   0.933627  -0.030834   2.578530   1.889090   7.950910  -1.812050  -0.018845   7.425580 -77.499300  12.878400   0.325503  -3.429300  -3.181240 -13.337200  15.516800   7.290410   8.907540  35.762800  21.578700 -55.066800 -29.088900  -0.000270   0.005375  -9.539940   0.007429   0.012777 -36.338900   8.623100 -11.507100 -30.444300   0.001237   0.010091 -21.311000   0.001615   0.004658 -30.916700  -0.090640   0.151382 -46.352300  -0.001045   0.006631 -30.885600  -0.000475   0.002698 -28.635600  -0.078930   0.154855 -37.878800  -0.002729   0.010096 -25.221800   0.000690   0.009775 -34.942400  -0.101056   0.144629 -52.414000   0.002305  -0.007623 -34.907700   0.008965  -0.008060   6.814310   2.754890   4.649640  73.427000   6.162930   0.012103   2.418610  -3.572020  10.405200 -12.176100 -10.358400   0.781523 -40.295600  34.718800  70.985200  28.768100   0.003099  -0.005193   9.384020   0.000000  -0.002653  28.527300   2.975910   5.455930  23.453900   0.004952   0.005769  16.430400  -0.003098   0.003860  26.041800  -1.889740  -3.860760  26.105400   0.001777   0.003488  17.386100   0.002845  -0.013270  27.015200  -4.620190  -8.979040  28.606300   0.000582   0.005860  19.051700  -0.003894   0.003718  35.284500  -5.867430  -8.222160  53.551300   0.000790   0.001333  35.665100   0.000944   0.001137  -0.843319   4.156640   1.543240   0.002153   0.977618   7.242450  -3.453700  -5.381690   4.157220   0.000000   0.000000   0.000000   2.143500   4.200210  -8.297040  -0.052416   1.989180  -1.234880 -11.150800  -0.595252   2.309250   0.000000   0.000000   0.000000
  0.128175  90.046500  -0.189086  -0.703720  -2.047740  -4.188280   0.042390   1.532920  -0.411400   0.095848   3.065510  -0.824350   1.564260   0.967174  -0.030756   2.572010   1.957520   7.980450  -1.817220  -0.055214   7.431350 -77.498800  12.915700   0.290742  -3.410530  -3.145890 -13.320000  15.511800   7.270040   8.895790  35.761200  21.575200 -55.056000 -29.093500  -0.000294   0.005367  -9.546760   0.007424   0.012805 -36.347600   8.622820 -11.516300 -30.451800   0.001227   0.010058 -21.316200   0.001608   0.004607 -30.917500  -0.084611   0.141267 -46.356200  -0.001059   0.006612 -30.886400  -0.000476   0.002688 -28.635700  -0.078932   0.144515 -37.877400  -0.002730   0.010051 -25.226300   0.000693   0.009739 -34.935400  -0.094302   0.134992 -52.403400   0.002290  -0.007611 -34.900600   0.008990  -0.008083   6.863200   2.615450   4.702570  73.421800   6.298050  -0.026804   2.374660  -3.670350  10.325100 -12.101800 -10.301200   0.758606 -40.268200  34.680900  70.921500  28.787200   0.003118  -0.005083   9.393590   0.000000  -0.002586  28.533400   2.969240   5.442290  23.460900   0.004960   0.005775  16.430800  -0.003082   0.003867  26.059600  -1.909090  -3.896980  26.124400   0.001773   0.003484  17.398800   0.002849  -0.013283  27.009600  -4.637960  -9.013570  28.610600   0.000595   0.005892  19.054600  -0.003890   0.003739  35.277900  -5.890240  -8.253620  53.554700   0.000758   0.001287  35.667400   0.000933   0.001130  -0.844458   4.208920   1.543220   0.001658   0.956000   7.255650  -3.452450  -5.379370   4.167890  -0.000000   0.000000   0.000000   2.147480   4.233770  -8.288040  -0.051852   1.986930  -1.243120 -11.150800  -0.594877   2.325480   0.000000   0.000000   0.000000
  0.128250  90.046300  -0.188406  -0.707041  -2.083920  -4.204950   0.051568   1.551880  -0.399057   0.113934   3.103350  -0.800129   1.554540   1.010690  -0.030769   2.553720   2.045230   7.991460  -1.837660  -0.030320   7.416530 -77.508600  13.028400   0.232612  -3.422360  -3.230310 -13.304400  15.516700   7.268680   8.896730  35.698100  21.451900 -54.981900 -29.144100  -0.000335   0.005359  -9.573990   0.007418   0.012859 -36.402100   8.591720 -11.457500 -30.490900   0.001203   0.010009 -21.343500   0.001601   0.004532 -30.917100  -0.113318   0.189187 -46.366300  -0.001084   0.006582 -30.886200  -0.000475   0.002672 -28.635500  -0.105703   0.193543 -37.898500  -0.002737   0.009996 -25.242300   0.000702   0.009683 -34.965800  -0.126433   0.180694 -52.449000   0.002267  -0.007595 -34.931000   0.009031  -0.008120   6.907040   2.526870   4.731700  73.422500   6.485860  -0.019604   2.299780  -3.849090  10.205900 -12.009100 -10.244500   0.729202 -40.234700  34.649500  70.888700  28.802600   0.003143  -0.004910   9.401310  -0.000025  -0.002500  28.536900   2.950720   5.407610  23.462800   0.004972   0.005787  16.429100  -0.003060   0.003873  26.076300  -1.954040  -3.985110  26.144100   0.001770   0.003486  17.411900   0.002852  -0.013304  27.004700  -4.680970  -9.092580  28.621600   0.000612   0.005937  19.062000  -0.003884   0.003772  35.281600  -5.947990  -8.323610  53.574400   0.000713   0.001214  35.680500   0.000919   0.001121  -0.844028   4.228410   1.543210   0.001845   0.973968   7.267440  -3.452350  -5.381960   4.173780   0.000000   0.000000   0.000000   2.151220   4.267090  -8.283720  -0.051696   1.987400  -1.248010 -11.150900  -0.594489   2.341960   0.000000   0.000000  -0.000000
